<svg width="20" height="20" viewBox="0 0 20 20" fill="none" xmlns="http://www.w3.org/2000/svg">
<path d="M16.3639 3.63604C19.8787 7.15076 19.8787 12.8492 16.3639 16.3639C12.8492 19.8787 7.15074 19.8787 3.63604 16.3639C0.12132 12.8492 0.12132 7.15074 3.63604 3.63604C7.15076 0.12132 12.8492 0.12132 16.3639 3.63604" stroke="#C8C8C8" stroke-width="1.5" stroke-linecap="round" stroke-linejoin="round"/>
<path d="M15.3054 17.257C14.9214 15.417 12.7034 14 9.99841 14C7.29341 14 5.07541 15.417 4.69141 17.257" stroke="#C8C8C8" stroke-width="1.5" stroke-linecap="round" stroke-linejoin="round"/>
<path d="M12.1213 5.87868C13.2929 7.05025 13.2929 8.94975 12.1213 10.1213C10.9497 11.2929 9.05025 11.2929 7.87868 10.1213C6.70711 8.94975 6.70711 7.05025 7.87868 5.87868C9.05025 4.70711 10.9497 4.70711 12.1213 5.87868" stroke="#C8C8C8" stroke-width="1.5" stroke-linecap="round" stroke-linejoin="round"/>
</svg>
