<svg width="173" height="54" viewBox="0 0 173 54" fill="none" xmlns="http://www.w3.org/2000/svg">
    <path d="M85.5937 34.9248V26.6982H79.5952V23.9165H85.5937V16.7314H88.8369V34.9248H85.5937ZM81.0058 18.3794C80.2851 24.6548 76.4883 29.3965 69.6152 32.6045L67.3477 30.2314C69.3076 29.5986 71.2588 28.4341 73.2012 26.7378C75.1523 25.0415 76.4135 23.1826 76.9848 21.1611H68.7978V18.3794H81.0058ZM72.4233 41.2792V32.7363H75.7324V38.4975H89.3246V41.2792H72.4233Z" fill="#57838B"/>
    <path d="M114.558 25.749V31.5761H111.249V16.7314H114.558V22.9673H118.421V25.749H114.558ZM107.953 18.1025C107.065 24.0879 103.211 28.6186 96.391 31.6948L94.0444 29.124C96.2856 28.5 98.2895 27.4321 100.056 25.9204C101.823 24.3999 103.058 22.7212 103.761 20.8843H95.6396V18.1025H107.953ZM106.49 42.0571C103.791 42.0571 101.704 41.5912 100.227 40.6596C98.7509 39.7368 98.0126 38.5107 98.0126 36.9814C98.0126 35.4609 98.7597 34.2436 100.254 33.3295C101.748 32.4155 103.827 31.9585 106.49 31.9585C109.162 31.9585 111.24 32.4155 112.725 33.3295C114.22 34.2348 114.967 35.4521 114.967 36.9814C114.967 38.5195 114.224 39.7499 112.739 40.6728C111.262 41.5956 109.179 42.0571 106.49 42.0571ZM106.49 34.7138C103.123 34.7138 101.44 35.4697 101.44 36.9814C101.44 38.5283 103.123 39.3017 106.49 39.3017C109.873 39.3017 111.565 38.5283 111.565 36.9814C111.565 35.4697 109.873 34.7138 106.49 34.7138Z" fill="#57838B"/>
    <path d="M141.556 30.561V42.1625H138.247V16.7314H141.556V27.7793H145.538V30.561H141.556ZM121.398 23.02V20.2383H127.489V16.7314H130.838V20.2383H136.942V23.02H121.398ZM129.111 36.2563C127.16 36.2563 125.56 35.6982 124.312 34.582C123.064 33.457 122.44 32.0332 122.44 30.3105C122.44 28.5351 123.055 27.0937 124.286 25.9863C125.516 24.8701 127.133 24.312 129.137 24.312C131.124 24.312 132.741 24.8701 133.989 25.9863C135.237 27.1025 135.861 28.5527 135.861 30.3369C135.861 32.0683 135.237 33.4877 133.989 34.5952C132.741 35.7026 131.115 36.2563 129.111 36.2563ZM129.137 27.0937C128.1 27.0937 127.274 27.3882 126.659 27.977C126.043 28.5571 125.736 29.3349 125.736 30.3105C125.736 31.2421 126.039 32.0024 126.645 32.5913C127.252 33.1801 128.082 33.4746 129.137 33.4746C130.183 33.4746 131.014 33.1757 131.629 32.5781C132.253 31.9804 132.565 31.2246 132.565 30.3105C132.565 29.3525 132.253 28.5791 131.629 27.9902C131.014 27.3925 130.183 27.0937 129.137 27.0937Z" fill="#003142"/>
    <path d="M168.292 29.1504V42.1625H164.996V16.7314H168.292V26.3686H172.537V29.1504H168.292ZM163.111 34.7402C161.142 35.0126 157.838 35.1489 153.197 35.1489H149.361V18.8935H161.49V21.6753H152.657V32.3935H153.935C158.04 32.3935 160.997 32.2661 162.808 32.0112L163.111 34.7402Z" fill="#003142"/>
    <path d="M38.271 42.6992H15.7617V51.5476C19.2935 53.1653 23.1329 54.0018 27.0176 53.9998C30.9024 53.9978 34.7409 53.1574 38.271 51.536V42.6992Z" fill="#002231"/>
    <path d="M27.0032 7.97067e-07C21.5175 -0.0013319 16.1615 1.66857 11.6485 4.78732C7.13558 7.90608 3.67981 12.3257 1.74146 17.4576C-0.196893 22.5895 -0.52585 28.1901 0.798395 33.5136C2.12264 38.8371 5.03723 43.6309 9.15405 47.2565V22.8753H15.7616V36.5754H38.2709V22.8753H44.8524V47.2507C48.967 43.6246 51.8797 38.8313 53.2026 33.5088C54.5256 28.1863 54.1961 22.5871 52.258 17.4565C50.3199 12.3259 46.8651 7.90739 42.3536 4.78892C37.842 1.67045 32.4876 8.11797e-06 27.0032 7.97067e-07V7.97067e-07ZM27.0032 25.4035C26.1375 25.4035 25.2913 25.1469 24.5715 24.6659C23.8517 24.185 23.2907 23.5014 22.9594 22.7016C22.6282 21.9018 22.5415 21.0217 22.7103 20.1727C22.8792 19.3236 23.2961 18.5437 23.9082 17.9316C24.5204 17.3195 25.3003 16.9026 26.1493 16.7337C26.9984 16.5648 27.8784 16.6515 28.6782 16.9828C29.478 17.314 30.1616 17.8751 30.6425 18.5949C31.1235 19.3147 31.3802 20.1609 31.3802 21.0266C31.3787 22.1864 30.9168 23.2982 30.0961 24.1178C29.2755 24.9374 28.1631 25.3978 27.0032 25.3978V25.4035Z" fill="#002231"/>
</svg>
