<svg width="179" height="17" viewBox="0 0 179 17" fill="none" xmlns="http://www.w3.org/2000/svg">
    <path d="M2.286 9.708C4.716 9.186 7.254 7.584 8.28 5.352C9.306 7.566 11.862 9.15 14.328 9.636L14.922 8.448C12.114 7.998 9.036 5.784 9.036 3.21V2.868H14.382V1.662H2.16V2.868H7.506V3.21C7.506 5.784 4.446 8.034 1.656 8.502L2.286 9.708ZM9.018 13.038V9.132H7.542V13.038H0.954V14.262H15.606V13.038H9.018ZM27.7546 2.166H23.5966V0.186H22.1206V2.166H17.9446V3.354H27.7546V2.166ZM20.3746 7.26C20.3746 6.126 21.3826 5.406 22.8586 5.406C24.3166 5.406 25.3246 6.126 25.3246 7.26C25.3246 8.376 24.3166 9.096 22.8586 9.096C21.3826 9.096 20.3746 8.376 20.3746 7.26ZM23.5966 10.212C25.5046 9.978 26.7286 8.862 26.7286 7.26C26.7286 5.442 25.1626 4.272 22.8586 4.272C20.5546 4.272 18.9706 5.442 18.9706 7.26C18.9706 8.88 20.2126 9.996 22.1206 10.23V11.958C20.5186 12.012 18.9706 12.03 17.6026 12.03L17.8186 13.272C20.7886 13.272 24.6766 13.218 28.2766 12.624L28.1686 11.526C26.6926 11.724 25.1266 11.832 23.5966 11.904V10.212ZM29.1946 0.186V16.332H30.6706V0.186H29.1946ZM43.6472 1.662H39.6152V0.0239997H38.1392V1.662H34.1252V2.796H43.6472V1.662ZM36.4292 6.162C36.4292 5.19 37.3832 4.614 38.8772 4.614C40.3712 4.614 41.3432 5.19 41.3432 6.162C41.3432 7.116 40.3712 7.71 38.8772 7.71C37.3832 7.71 36.4292 7.116 36.4292 6.162ZM42.7472 6.162C42.7472 4.524 41.2172 3.516 38.8772 3.516C36.5552 3.516 35.0252 4.524 35.0252 6.162C35.0252 7.8 36.5552 8.808 38.8772 8.808C41.2172 8.808 42.7472 7.8 42.7472 6.162ZM37.8332 13.47H46.5992V9.888H36.3392V10.986H45.1412V12.39H36.3932V16.152H47.1932V15.018H37.8332V13.47ZM46.5992 4.02V0.131999H45.1232V9.06H46.5992V5.244H48.9932V4.02H46.5992ZM63.9276 4.38V5.586H67.1136V9.816H68.6076V0.204H67.1136V4.38H63.9276ZM64.8276 8.052C62.4876 7.224 60.9036 5.19 60.9036 3.12V2.562H64.4496V1.374H55.8276V2.562H59.4276V3.12C59.4276 5.442 57.7716 7.62 55.3596 8.502L56.1336 9.672C58.0236 8.952 59.5176 7.44 60.2016 5.568C60.9036 7.224 62.2896 8.556 64.0896 9.204L64.8276 8.052ZM63.2796 15.18C60.8496 15.18 59.3736 14.496 59.3736 13.326C59.3736 12.156 60.8496 11.454 63.2796 11.454C65.7096 11.454 67.1856 12.156 67.1856 13.326C67.1856 14.496 65.7096 15.18 63.2796 15.18ZM63.2796 10.32C59.9676 10.32 57.8976 11.418 57.8976 13.326C57.8976 15.234 59.9676 16.332 63.2796 16.332C66.5916 16.332 68.6616 15.234 68.6616 13.326C68.6616 11.418 66.5916 10.32 63.2796 10.32ZM75.0502 5.424H83.2942V8.394H75.0502V5.424ZM79.9102 13.056V9.582H84.7342V1.338H83.2942V4.218H75.0502V1.338H73.5922V9.582H78.4162V13.056H71.8642V14.262H86.4982V13.056H79.9102ZM89.2868 1.914V3.138H95.2088C94.8668 6.954 92.6528 10.05 88.5308 12.12L89.3408 13.272C94.5608 10.662 96.6668 6.504 96.6668 1.914H89.2868ZM103.435 6.738H100.843V0.186H99.3668V16.332H100.843V7.962H103.435V6.738ZM115.723 14.964H112.879V12.786H115.723V14.964ZM115.723 11.688H112.879V9.654H111.493V16.116H117.091V9.654H115.723V11.688ZM114.067 7.116C112.465 7.116 111.313 6.072 111.313 4.614C111.313 3.156 112.465 2.13 114.067 2.13C115.669 2.13 116.821 3.156 116.821 4.614C116.821 6.072 115.669 7.116 114.067 7.116ZM121.465 5.19V8.736H122.959V0.204H121.465V3.984H118.171C117.865 2.13 116.245 0.905999 114.067 0.905999C111.655 0.905999 109.909 2.4 109.909 4.614C109.909 6.828 111.655 8.34 114.067 8.34C116.281 8.34 117.901 7.08 118.189 5.19H121.465ZM121.663 9.546H120.223V10.914C120.223 12.57 119.215 14.316 117.289 15.144L118.045 16.26C119.449 15.648 120.421 14.532 120.943 13.218C121.429 14.55 122.401 15.648 123.859 16.26L124.597 15.144C122.671 14.388 121.663 12.624 121.663 10.914V9.546ZM139.986 5.226C137.124 4.866 134.28 3.084 134.28 1.086V0.366H132.768V1.086C132.768 3.138 129.942 4.866 127.044 5.226L127.584 6.414C130.104 6.018 132.516 4.758 133.524 2.958C134.55 4.758 136.944 6.018 139.446 6.414L139.986 5.226ZM137.448 14.928H129.51V12.876H137.448V14.928ZM137.448 11.742H129.51V9.852H128.052V16.116H138.906V9.852H137.448V11.742ZM126.198 7.548V8.736H140.814V7.548H126.198ZM145.258 1.752H143.782V12.156H145.114C147.688 12.156 150.226 11.976 153.034 11.4L152.872 10.14C150.19 10.68 147.688 10.896 145.258 10.896V1.752ZM154.528 0.186V16.314H156.004V0.186H154.528ZM161.493 2.958H167.523V1.734H160.017V12.336H161.295C164.337 12.336 166.461 12.228 168.927 11.76L168.765 10.536C166.425 10.95 164.355 11.076 161.493 11.076V2.958ZM174.417 6.558H171.753V0.186H170.277V16.368H171.753V7.782H174.417V6.558ZM176.234 14.028C176.234 13.584 176.342 13.272 176.558 13.092C176.774 12.912 177.032 12.822 177.332 12.822C177.644 12.822 177.908 12.912 178.124 13.092C178.352 13.272 178.466 13.584 178.466 14.028C178.466 14.46 178.352 14.772 178.124 14.964C177.908 15.156 177.644 15.252 177.332 15.252C177.032 15.252 176.774 15.156 176.558 14.964C176.342 14.772 176.234 14.46 176.234 14.028Z" fill="#D1D1D1"/>
</svg>
